# xmcd
#
# Track frame offsets:
# 150
# 15362
# 26087
# 39437
# 49412
# 61280
# 74237
# 83635
# 92687
# 109142
# 123437
# 135972
# 150145
# 163412
# 181712
# 198737
# 216287
# 232745
# 245912
# 265755
# 286817
# 302625
#
# Disc length: 4184 seconds
#
#
# Revision: 0
# Processed by: cddbd v1.5.1PL2 Copyright (c) Steve Scherf et al.
# Submitted via: FreeRIP 2.945 
#
DISCID=2e105616
DTITLE=Randy Newman - Lonely At The Top
DYEAR=1987
DGENRE=Ballad
TTITLE0=Love Story
TTITLE1=Living Without You
TTITLE2=I Think It's Going To Rain Today
TTITLE3=Mama Told Me Not To Come
TTITLE4=My Old Kentucky Home
TTITLE5=Sail Away
TTITLE6=Simon Smith And The Amazing Dancing Bear
TTITLE7=Political Science
TTITLE8=God's Song (That's Why I Love Mankind)
TTITLE9=Rednecks
TTITLE10=Birmingham
TTITLE11=Marie
TTITLE12=Lousiana 1927
TTITLE13=Baltimore
TTITLE14=Jolly Coppers on Parade
TTITLE15=Rider In The Rain
TTITLE16=In Germany Before The War
TTITLE17=Short People
TTITLE18=Christmas In Capetown
TTITLE19=My Life Is Good
TTITLE20=I Love L.A.
TTITLE21=Lonely At The Top
EXTD=
EXTT0=
EXTT1=
EXTT2=
EXTT3=
EXTT4=
EXTT5=
EXTT6=
EXTT7=
EXTT8=
EXTT9=
EXTT10=
EXTT11=
EXTT12=
EXTT13=
EXTT14=
EXTT15=
EXTT16=
EXTT17=
EXTT18=
EXTT19=
EXTT20=
EXTT21=
PLAYORDER=
